<svg xmlns="http://www.w3.org/2000/svg" width="192" height="52" viewBox="0 0 192 52" fill="none"><path d="M191.053 15.1152H175.713V18.4762H191.053V15.1152Z" fill="#37BC99"></path><path d="M77.1181 34.6297C75.7912 35.4916 74.3185 36.093 72.7757 36.4031C71.919 36.5731 71.0482 36.6577 70.1755 36.6555C68.6654 36.6815 67.1652 36.4016 65.7615 35.8319C64.4872 35.3137 63.3318 34.5311 62.3682 33.5338C61.4203 32.5405 60.6795 31.361 60.1906 30.0667C59.669 28.6881 59.4087 27.2207 59.4234 25.7428C59.4141 24.2915 59.6813 22.8522 60.21 21.5052C60.7161 20.1967 61.4714 19.0039 62.4322 17.996C63.393 16.988 64.5402 16.1851 65.807 15.6337C67.1663 15.0392 68.6319 14.7406 70.1104 14.757C70.9401 14.7503 71.7688 14.817 72.5872 14.9562C73.2877 15.075 73.9756 15.2618 74.6414 15.5141C75.2671 15.7487 75.8682 16.0469 76.4356 16.4042C77.0134 16.7706 77.5632 17.1814 78.0802 17.6329L75.7725 20.4492C75.3853 20.1113 74.9794 19.7963 74.5569 19.506C74.1462 19.2281 73.7109 18.9901 73.2568 18.7953C72.7738 18.5958 72.2731 18.4445 71.7616 18.3436C71.1727 18.2272 70.5738 18.1716 69.974 18.1776C69.0579 18.1712 68.1519 18.3731 67.3217 18.7687C66.5115 19.1569 65.7863 19.7081 65.1895 20.3894C64.5763 21.0936 64.0939 21.9061 63.7659 22.7871C63.4187 23.7156 63.2445 24.7023 63.2523 25.6963C63.2407 26.7283 63.4102 27.7541 63.7529 28.725C64.0675 29.6195 64.5562 30.4397 65.1895 31.1361C65.8158 31.8174 66.5726 32.36 67.4127 32.7301C68.3248 33.1263 69.308 33.3232 70.299 33.308C71.2398 33.3167 72.1755 33.1664 73.0683 32.863C73.8701 32.5981 74.6251 32.2034 75.3045 31.694V27.7088H69.9999V24.4675H78.8278V33.3677C78.2869 33.828 77.7157 34.2497 77.1181 34.6297Z" fill="white"></path><path d="M83.5596 15.1152H87.1476V32.9359H98.0417V36.2967H83.5596V15.1152Z" fill="white"></path><path d="M105.705 15.1152V36.2967H102.098V15.1152H105.705Z" fill="white"></path><path d="M121.488 31.0893H121.371L114.871 21.1661V36.2967H111.263V15.1152H115.163L121.475 25.1315L127.78 15.1152H131.68V36.2967H128.066V21.1064L121.488 31.0893Z" fill="white"></path><path d="M152.377 25.3705C151.959 26.2555 151.35 27.0321 150.596 27.642C149.806 28.2661 148.909 28.7325 147.95 29.0169C146.896 29.338 145.801 29.4969 144.7 29.4885H140.573V36.2965H136.958V15.1153H145.129C146.232 15.1035 147.329 15.2717 148.379 15.6135C149.296 15.9102 150.141 16.3988 150.862 17.0481C151.541 17.6674 152.078 18.4316 152.435 19.2865C152.811 20.2169 152.997 21.2159 152.982 22.2222C153.019 23.3051 152.812 24.3824 152.377 25.3705ZM148.106 19.4326C147.158 18.7503 146.014 18.4113 144.856 18.4695H140.612V26.1277H144.856C146.041 26.1944 147.209 25.8217 148.145 25.0782C148.539 24.739 148.851 24.3127 149.06 23.8317C149.268 23.3507 149.367 22.8276 149.348 22.3019C149.382 21.7569 149.287 21.2114 149.071 20.7119C148.855 20.2124 148.524 19.7735 148.106 19.4326Z" fill="white"></path><path d="M160.015 21.7374C160.19 22.0846 160.452 22.378 160.775 22.5875C161.243 22.9023 161.753 23.1461 162.29 23.3115C162.94 23.5373 163.746 23.7698 164.74 24.0089C165.723 24.2601 166.689 24.5729 167.633 24.9454C168.394 25.2425 169.101 25.6667 169.726 26.2007C170.265 26.6758 170.695 27.2651 170.987 27.9276C171.288 28.6609 171.434 29.4508 171.416 30.2457C171.427 31.1608 171.243 32.0672 170.877 32.9025C170.521 33.6724 170.004 34.3527 169.362 34.8951C168.675 35.4619 167.884 35.882 167.035 36.1305C166.065 36.424 165.057 36.5672 164.045 36.5556C162.479 36.5636 160.924 36.2823 159.456 35.7254C157.955 35.148 156.578 34.2797 155.399 33.1682L157.59 30.5114C158.505 31.3385 159.532 32.0274 160.639 32.5571C161.742 33.0455 162.934 33.2878 164.136 33.2678C165.082 33.3175 166.019 33.0619 166.814 32.5372C167.132 32.3192 167.39 32.0216 167.563 31.6727C167.736 31.3238 167.818 30.9354 167.802 30.5446C167.809 30.1918 167.745 29.8413 167.614 29.5151C167.452 29.1784 167.205 28.8918 166.899 28.6848C166.458 28.3826 165.979 28.1434 165.475 27.9741C164.873 27.7527 164.086 27.5313 163.115 27.3099C162.112 27.0826 161.124 26.7897 160.158 26.4332C159.375 26.156 158.644 25.7475 157.993 25.2244C157.42 24.7531 156.962 24.153 156.654 23.4709C156.33 22.6764 156.175 21.8206 156.199 20.9602C156.181 20.1123 156.346 19.2708 156.683 18.4957C157.02 17.7207 157.521 17.0313 158.149 16.4769C158.801 15.9109 159.557 15.4841 160.372 15.2215C161.29 14.9211 162.249 14.7731 163.213 14.7832C164.608 14.7546 165.997 14.9795 167.315 15.4474C168.552 15.9182 169.707 16.5912 170.734 17.44L168.784 20.2562C167.92 19.5939 166.976 19.0491 165.976 18.6355C165.08 18.2701 164.125 18.0809 163.161 18.0776C162.272 18.0218 161.393 18.2823 160.671 18.8149C160.396 19.0238 160.173 19.2952 160.018 19.6076C159.864 19.92 159.782 20.2648 159.781 20.6149C159.775 21.0023 159.855 21.386 160.015 21.7374Z" fill="white"></path><path d="M179.32 32.936V27.277H187.367V23.9229H175.713V36.2968H191.196V32.936H179.32Z" fill="white"></path><path d="M43.6805 25.4768V25.7823C43.681 27.0334 43.5612 28.2814 43.323 29.5085H45.7085C44.7788 34.7938 41.9465 39.532 37.7692 42.7905C33.592 46.0489 28.3723 47.5915 23.1378 47.1146C17.9032 46.6377 13.033 44.1759 9.48577 40.2137C5.93854 36.2515 3.9713 31.076 3.9713 25.706C3.9713 20.336 5.93854 15.1605 9.48577 11.1983C13.033 7.23607 17.9032 4.7742 23.1378 4.2973C28.3723 3.82039 33.592 5.363 37.7692 8.62144C41.9465 11.8799 44.7788 16.6181 45.7085 21.9034H49.7126C48.7374 15.3795 45.329 9.49432 40.2017 5.48114C35.0744 1.46795 28.6261 -0.361813 22.2078 0.375203C15.7896 1.11222 9.89949 4.35884 5.77178 9.43479C1.64407 14.5107 -0.40093 21.0221 0.0652547 27.6045C0.531439 34.1869 3.4726 40.3295 8.27254 44.7453C13.0725 49.161 19.3587 51.5073 25.8139 51.2923C32.2691 51.0774 38.3925 48.3179 42.9009 43.5922C47.4093 38.8665 49.9528 32.5412 49.9986 25.9417V25.4768H43.6805Z" fill="#37BC99"></path><path d="M35.4971 11.4085C32.3301 8.99319 28.4581 7.74067 24.5078 7.85371C20.5575 7.96675 16.7601 9.43873 13.7304 12.0314C10.7007 14.6241 8.61598 18.1856 7.81372 22.1396C7.01147 26.0936 7.53862 30.2085 9.30986 33.8182C11.0811 37.4279 13.9927 40.3212 17.5735 42.0296C21.1542 43.7381 25.1944 44.1618 29.0401 43.232C32.8858 42.3023 36.3118 40.0736 38.7636 36.9067C41.2155 33.7398 42.5495 29.82 42.5499 25.782V25.4764H25.0446V29.5082H38.0972C37.232 32.6677 35.3001 35.4123 32.6439 37.2555C29.9877 39.0987 26.7786 39.9215 23.5854 39.5782C20.3922 39.2348 17.421 37.7475 15.1984 35.3797C12.9758 33.0119 11.6454 29.9165 11.4428 26.6422C11.2402 23.3679 12.1785 20.126 14.0915 17.491C16.0046 14.856 18.7687 12.9982 21.8942 12.2466C25.0196 11.495 28.3046 11.8983 31.1669 13.385C34.0291 14.8717 36.2839 17.3457 37.5317 20.3687H41.7374C40.6171 16.7929 38.4363 13.6616 35.4971 11.4085Z" fill="#80D6BC"></path></svg>